<svg xmlns="http://www.w3.org/2000/svg" viewBox="0 0 960 540" role="img" aria-labelledby="title desc">
  <title id="title">Интерьер вагона с молчаливыми пассажирами</title>
  <desc id="desc">Тусклый вагон электрички, трое силуэтов сидят на лавке, справа двери тамбура.</desc>
  <defs>
    <linearGradient id="wall" x1="0%" x2="100%" y1="0%" y2="100%">
      <stop offset="0%" stop-color="#3f5c66" />
      <stop offset="55%" stop-color="#2a3d47" />
      <stop offset="100%" stop-color="#1d2730" />
    </linearGradient>
    <linearGradient id="floor" x1="0%" x2="0%" y1="0%" y2="100%">
      <stop offset="0%" stop-color="#463a38" />
      <stop offset="60%" stop-color="#312b2a" />
      <stop offset="100%" stop-color="#1d1a1a" />
    </linearGradient>
    <linearGradient id="seatTop" x1="0%" x2="100%" y1="0%" y2="100%">
      <stop offset="0%" stop-color="#77533f" />
      <stop offset="45%" stop-color="#634231" />
      <stop offset="100%" stop-color="#4b2d21" />
    </linearGradient>
    <linearGradient id="seatFront" x1="0%" x2="0%" y1="0%" y2="100%">
      <stop offset="0%" stop-color="#3f2b21" />
      <stop offset="100%" stop-color="#261a15" />
    </linearGradient>
    <linearGradient id="doorPanel" x1="0%" x2="100%" y1="0%" y2="100%">
      <stop offset="0%" stop-color="#9aa5ab" />
      <stop offset="30%" stop-color="#7c868f" />
      <stop offset="100%" stop-color="#4a5461" />
    </linearGradient>
    <linearGradient id="doorInset" x1="0%" x2="0%" y1="0%" y2="100%">
      <stop offset="0%" stop-color="#45505d" />
      <stop offset="70%" stop-color="#2b323b" />
      <stop offset="100%" stop-color="#212730" />
    </linearGradient>
    <linearGradient id="window" x1="0%" x2="100%" y1="0%" y2="100%">
      <stop offset="0%" stop-color="#323f4f" stop-opacity="0.85" />
      <stop offset="100%" stop-color="#1b202a" stop-opacity="0.9" />
    </linearGradient>
    <linearGradient id="ceiling" x1="0%" x2="0%" y1="0%" y2="100%">
      <stop offset="0%" stop-color="#5b6875" />
      <stop offset="100%" stop-color="#343d47" />
    </linearGradient>
    <radialGradient id="lightGlow" cx="50%" cy="30%" r="65%">
      <stop offset="0%" stop-color="#f6f2d7" stop-opacity="0.9" />
      <stop offset="100%" stop-color="#f6f2d7" stop-opacity="0" />
    </radialGradient>
    <linearGradient id="handrail" x1="0%" x2="100%" y1="0%" y2="0%">
      <stop offset="0%" stop-color="#7a96a1" />
      <stop offset="100%" stop-color="#5d737c" />
    </linearGradient>
  </defs>
  <rect width="960" height="540" fill="url(#wall)" />
  <path d="M0 300 L960 270 L960 540 L0 540 Z" fill="url(#floor)" />
  <path d="M0 118 L960 80 L960 120 L0 158 Z" fill="url(#ceiling)" opacity="0.6" />
  <rect x="138" y="308" width="536" height="42" rx="16" fill="url(#seatTop)" />
  <path d="M132 348 L694 348 L730 406 L166 406 Z" fill="url(#seatFront)" />
  <path d="M164 348 L698 348 L724 390 L186 390 Z" fill="#2e1f19" opacity="0.6" />
  <path d="M640 160 L852 180 L852 420 L676 398 Z" fill="url(#doorPanel)" />
  <path d="M664 188 L820 202 L820 388 L688 374 Z" fill="url(#doorInset)" />
  <path d="M744 210 L770 212 L770 364 L744 362 Z" fill="#232b36" />
  <path d="M688 246 L821 258" stroke="#b8c2cd" stroke-width="4" stroke-linecap="round" opacity="0.35" />
  <path d="M680 318 L812 330" stroke="#bec8d1" stroke-width="4" stroke-linecap="round" opacity="0.3" />
  <path d="M192 188 L588 166 L596 264 L204 284 Z" fill="url(#window)" />
  <path d="M250 178 L268 176 L276 266 L258 268 Z" fill="#1b242d" opacity="0.55" />
  <path d="M438 170 L456 168 L464 258 L446 260 Z" fill="#1b242d" opacity="0.55" />
  <path d="M198 228 L592 204" stroke="#4d5e65" stroke-width="4" stroke-linecap="round" opacity="0.25" />
  <path d="M200 140 L630 118 L632 134 L202 156 Z" fill="#dce2dd" opacity="0.8" />
  <ellipse cx="320" cy="140" rx="140" ry="70" fill="url(#lightGlow)" opacity="0.4" />
  <path d="M146 220 L168 218 L168 348 L146 352 Z" fill="#283640" opacity="0.55" />
  <path d="M594 206 L616 204 L622 334 L600 336 Z" fill="#283640" opacity="0.45" />
  <path d="M140 244 L180 240" stroke="#66737b" stroke-width="6" stroke-linecap="round" opacity="0.4" />
  <path d="M586 226 L626 222" stroke="#66737b" stroke-width="6" stroke-linecap="round" opacity="0.4" />
  <path d="M120 332 L146 332" stroke="url(#handrail)" stroke-width="10" stroke-linecap="round" opacity="0.7" />
  <path d="M682 338 L866 356" stroke="url(#handrail)" stroke-width="12" stroke-linecap="round" opacity="0.55" />
  <g opacity="0.92">
    <g transform="translate(240 332)">
      <ellipse cx="0" cy="-96" rx="30" ry="40" fill="#0b0c15" />
      <path d="M-50 -32 Q0 -110 50 -32 L44 70 Q0 120 -44 78 Z" fill="#0e0f1c" />
      <path d="M-38 58 Q0 26 38 58 L30 144 Q0 168 -30 146 Z" fill="#070810" />
      <path d="M-18 116 L-6 132 Q0 138 6 132 L18 116 L18 168 L-18 168 Z" fill="#040507" />
    </g>
    <g transform="translate(410 320)">
      <ellipse cx="0" cy="-92" rx="28" ry="38" fill="#090b13" />
      <path d="M-44 -28 Q0 -108 44 -28 L38 78 Q0 126 -38 80 Z" fill="#0d0f1a" />
      <path d="M-34 54 Q0 20 34 54 L26 140 Q0 170 -26 144 Z" fill="#05060c" />
      <path d="M-12 112 L0 132 Q6 140 12 132 L24 110 L24 168 L-24 168 Z" fill="#030408" />
    </g>
    <g transform="translate(566 308)">
      <ellipse cx="0" cy="-88" rx="26" ry="36" fill="#080a12" />
      <path d="M-38 -26 Q0 -98 38 -26 L34 72 Q0 120 -34 76 Z" fill="#0b0d16" />
      <path d="M-30 46 Q0 16 30 46 L22 128 Q0 156 -22 132 Z" fill="#04050a" />
      <path d="M-12 102 L-2 122 Q4 132 12 124 L20 108 L20 164 L-20 164 Z" fill="#020309" />
    </g>
  </g>
  <path d="M104 414 L754 414 L796 470 L148 470 Z" fill="#1b1513" opacity="0.65" />
  <path d="M104 414 L754 414" stroke="#251b17" stroke-width="6" stroke-linecap="round" opacity="0.35" />
  <path d="M150 470 L798 470" stroke="#100c0b" stroke-width="8" opacity="0.4" />
  <path d="M120 330 L180 330" stroke="#202a34" stroke-width="4" opacity="0.5" stroke-linecap="round" />
  <path d="M612 322 L664 330" stroke="#202a34" stroke-width="4" opacity="0.45" stroke-linecap="round" />
</svg>
